<?xml version="1.0" encoding="UTF-8"?>
<svg id="Calque_1" data-name="Calque 1" xmlns="http://www.w3.org/2000/svg" viewBox="0 0 400 400">
  <path d="M159.5,39.9c-9.1,39.4-17.4,79.1-24.8,118.9-3.7,19.9-7.1,39.9-10.3,59.8-3.1,19.5-7.2,39.3-8.8,58.9-.3,3.8.3,7.9,3.1,10.7s7.4,3.3,11.6,3.4c12,.5,23.9.9,35.9,1.4s4.5-1.6,4.8-3.7c14.2-83.6,28.5-167.2,42.9-250.7.5-2.9-.8-5.1-3.5-6.2-14.1-5.4-28.1-10.8-42.2-16.3-2.4-.9-5.7,1-6.2,3.5l-5.6,28.8c-1.2,6.3,8.4,9,9.6,2.7,1.9-9.6,3.7-19.2,5.6-28.8l-6.2,3.5c14.1,5.4,28.1,10.8,42.2,16.3l-3.5-6.2c-14.5,83.5-28.8,167.1-42.9,250.7l4.8-3.7c-9.3-.4-18.6-.7-27.9-1.1s-11.5.8-12.7-1.6.3-4.6.5-5.9c.3-2.3.6-4.5,1-6.8,2.6-18.4,5.5-36.8,8.5-55.2,6-36.4,12.7-72.7,20.2-108.8,4.2-20.5,8.7-40.9,13.5-61.2,1.5-6.3-8.2-8.9-9.6-2.7h0Z"/>
  <path d="M110.9,289.3c5.1,22,11.7,43.6,19.7,64.7,1.9,5.1,9.7,4.6,9.8-1.3s0-3.6.1-5.3c.1-6.4-9.9-6.4-10,0s0,3.6-.1,5.3l9.8-1.3c-8-21.1-14.6-42.7-19.7-64.7-1.5-6.3-11.1-3.6-9.6,2.7h0Z"/>
  <path d="M165.1,291.1c-9.5,19.7-20.9,38.4-34.1,55.9h8.6l-.5-1.2c-.4-6.4-10.4-6.4-10,0s.6,4.2,1.9,6.2c2.2,3.4,6.4,3,8.6,0,13.1-17.5,24.5-36.2,34.1-55.9,2.8-5.8-5.8-10.8-8.6-5h0Z"/>
  <path d="M153,321.9c-4.9-6.8-12.8-11-21.4-10.1-2.7.3-5,2.1-5,5s2.3,5.3,5,5c4.9-.5,9.8,1,12.7,5.1,3.7,5.2,12.4.2,8.6-5h0Z"/>
  <path d="M278.7,66.2c-24.3,60.3-47,121.3-68,182.9-6,17.5-11.8,35-17.5,52.5-2,6.1,7.7,8.8,9.6,2.7,20.1-61.9,41.8-123.2,65.2-183.9,6.6-17.2,13.4-34.4,20.3-51.5,2.4-6-7.3-8.6-9.6-2.7h0Z"/>
  <path d="M197,307c10.3,2.9,20.1,6.6,29.6,11.4s10.8-5.7,5-8.6c-10.3-5.2-21-9.3-32-12.4-6.2-1.7-8.9,7.9-2.7,9.6h0Z"/>
  <path d="M285.1,70.9c8.4,2.9,16.2,6.9,23.5,11.9,5.3,3.6,10.3-5,5-8.6-8-5.5-16.7-9.8-25.9-13-6.1-2.1-8.7,7.5-2.7,9.6h0Z"/>
  <path d="M237.2,314.8c10.3-31.6,20.7-63.2,31-94.8,10-30.4,19.6-61,30.8-91,6.4-17.2,13.5-34.1,21.5-50.6s-5.8-10.8-8.6-5c-28.4,58.4-46.1,121.8-66.3,183.4s-12.1,36.9-18.1,55.4c-2,6.1,7.6,8.8,9.6,2.7h0Z"/>
  <path d="M191.8,304.7c.6.5.1,5.4.1,6.3,0,2.6,0,5.3.1,7.9,0,5.3.2,10.6.3,15.9.2,10.6.4,21.2.6,31.7s6.5,6.4,9.3,2.5c12.3-16.6,24.9-33,36.4-50.2s-5.1-10.4-8.6-5c-11.5,17.2-24.2,33.6-36.4,50.2l9.3,2.5c-.2-12.6-.4-25.1-.7-37.7s-.2-11.9-.3-17.9.7-10-3.1-13.4-11.9,2.7-7.1,7.1h0Z"/>
  <path d="M217.2,341.6c-2.4-6.1-6.7-11.2-12.7-13.8s-5.4-.7-6.8,1.8-.7,5.8,1.8,6.8c3.6,1.6,6.7,4.2,8.1,7.8s3.4,4.3,6.2,3.5,4.5-3.6,3.5-6.2h0Z"/>
</svg>