<?xml version="1.0" encoding="UTF-8"?>
<svg id="Calque_2" data-name="Calque 2" xmlns="http://www.w3.org/2000/svg" viewBox="0 0 298.2 203.6">
  <defs>
    <style>
      .cls-1 {
        fill: #75fbc6;
      }

      .cls-2 {
        fill: #5acaf1;
      }
    </style>
  </defs>
  <g id="Calque_1-2" data-name="Calque 1">
    <g>
      <g>
        <path class="cls-2" d="M58.9,3.8c1.4,1.2,2.1,6.4,2.6,8.1.6,2,1.2,5,2,7.3.5,1.5,1.6,5.6,2.2,5.8.8-.2,3.2-1.2,4.1-1.7,2-1.1,3.8-2.2,5.1-1.8,1.8.5,1.6,2.7.2,3.5-3.2,1.7-5.9,3-9.6,4.7-1,.4-1.4.8-2.1.8-1.5,0-2-1.9-2.5-4.1-1.2-3.7-2.8-9.8-3.6-12.8-1-3.2-2.8-8.3,0-9.4.8-.4,1.2-.5,1.8-.2Z"/>
        <path class="cls-2" d="M83.5,19.7c1.9,0,3.5,0,5.1-.2,1.1-.1,3.8-.8,4.9-.5.7.2,1.4,1.3.9,2.6-.6,1.8-3,1.8-5.1,1.9-2.4,0-4.8.1-7.2.3-2.9.2-3-.7-3.1-3.3,0-1.2.2-3.5.3-4.9.1-2.3.4-5.6.6-9.4,0-1.9,0-4.1.9-4.9,1-1,3.8-1.2,6.4-1.2,3.2,0,6,.1,6.2,1.5,0,1.3,0,2.2-1.6,2.3-.4,0-1,0-1.7,0-1.9,0-4.4,0-5.2.6-.5.3-.6.9-.6,1.8-.1.9-.7,3.4.1,4.1.3.3.7.3,1.2.3,1.2,0,2.8-.5,3.9-.5s1.4.3,1.6,1.1c.3,1.4-.7,2.2-1.7,2.4-.4,0-1.1.1-1.8.2-1.4.1-3.1.3-3.9.8-.5.5-.5,1.4-.5,2.4s0,1.6,0,2.2c0,.1,0,.3,0,.4h0Z"/>
        <path class="cls-2" d="M117.5,12.4c.1.7,0,2.3,0,2.6-.3,1.1-2.2,2.3-3.5,1.4-.9-.5-.7-2.1-.8-3.1-.1-.8-.3-2.3-1.5-2.8-1.9-.8-4.1-.1-4.5,1.1-1.2,3.7,2.7,5.7,4.2,8.1,1,1.7,1.3,4.4-.2,6.3-.6.8-2,2-3,2.4-1.6.7-4.1.9-7,0-1.5-.8-4.1-1.4-4.6-3.2-.2-1,.2-1.6.5-1.9.5-.6,1.4-.6,2.5-.3,1.9.5,3.4,2,5.3,1.9.9,0,2.4-.7,2.5-2.1,0-1.2-1.8-2.9-2.5-3.8-2-2-3.1-4.5-2.7-7,.6-3.7,3.4-5.6,6.2-6,1.2-.1,2.3-.1,3.7.1,2.3.2,5.9,3.3,5.5,6.3Z"/>
        <path class="cls-2" d="M56.1,104.3c-.4,2-.4,3.9-1.1,5-1.3,1.8-6.6,4.7-9.2,2-2.4-2.5-.6-28.1-.4-32.8.6-12.6.5-13.4,1.3-26.9.4-6.3,1-11.6,6.9-12,2.2-.2,5.2.8,8.4,1.4,8.8,1.7,17,4.4,22.5,9.3,2.8,2.4,6.5,7.8,7.4,11.5,1.2,4.8-.1,10.5-2.2,13.9-2.3,3.6-7,7.1-11.3,9.2-6.2,2.8-13,2.8-20.9,5.5-.8,3.9-.5,9.5-1.3,13.8ZM59,52.2c-.6,3.7-1.2,4.4-1.4,11.9.3,5.1-1.2,10.3-.1,15.3,9.5-.2,22.6-3.4,23-11.8.4-9.3-13.4-14.8-21.5-15.4Z"/>
        <path class="cls-2" d="M104.6,96.7c4,.2,7.3-.2,10.7-.5,2.3-.3,8-1.9,10.3-1.2,1.4.4,2.8,3.1,1.8,6.1-1.3,4.2-6.2,4.3-10.6,4.3-5.1,0-10.1.3-14.9.7-6.1.5-6.3-1.7-6.5-7.7,0-2.8.3-8.1.6-11.4.2-5.3.8-13,1.3-21.9,0-4.5,0-9.4,1.9-11.4,2.1-2.3,7.8-2.7,13.3-2.7,6.6,0,12.5.3,13,3.6.2,3-.2,5.1-3.4,5.3-.9,0-2.1,0-3.5,0-3.9,0-9.1.2-10.9,1.3-1,.7-1.2,2.2-1.3,4.1-.2,2.1-1.4,7.9.3,9.6.7.6,1.4.8,2.4.8,2.4,0,5.8-1.3,8.2-1.3s2.9.8,3.4,2.5c.6,3.3-1.4,5-3.5,5.7-.9.2-2.3.3-3.7.5-2.8.3-6.5.7-8.1,1.8-1,1.1-1.1,3.3-1.1,5.6s0,3.8.2,5.2c0,.3,0,.6,0,.8h0Z"/>
        <path class="cls-2" d="M141.3,96c-2-2.6-1.1-10-.8-14.1.3-5,.6-13,.6-17.8-.3-4.1.5-14.7-2-18.7-1.7-1.8-13.2,1.1-16.8-1.9-1-.8-2.1-4.5-1-6.9,1.7-3.6,17.3-3.1,22.8-2.6,5,.4,15.8-.4,20.7-.5,1.9-.2,6,.6,6.4,2.8.4,2.7-1.1,5.5-2.8,6.5-2.8,1.4-11.2.3-13.5,2.5-2.6,2.3-1.6,9.9-1.8,16.3-.5,13,.6,25.5-1.9,34-1.2,4-7.7,4.2-9.7.3Z"/>
        <path class="cls-2" d="M178.6,50c1.2,2.8-.7,13-.9,16.9-.3,7.9-1.2,15.6-1.2,24s0,13.1-1.2,15c-1.2,1.7-4.9,3.2-6.7,2.4-2.7-1.1-2.1-5.7-1.9-9.4.2-2.3,0-8.6.2-11.4.4-6.9,1.2-15.5,1.7-23.7.2-2.5.6-11.7,1.2-13.1.8-1.6,3.5-2.6,5.2-2.7.7,0,3,0,3.7,1.9Z"/>
        <path class="cls-2" d="M206.1,96.1c-1.9-2.5-1.1-9.6-.8-13.5.3-4.8.6-12.5.6-17-.3-4,.5-14.1-1.9-17.9-1.6-1.7-12.7,1.1-16.1-1.8-1-.8-2-4.3-1-6.6,1.6-3.5,16.6-3,21.8-2.5,4.8.4,15.2-.4,19.8-.5,1.8-.2,5.7.6,6.1,2.7.4,2.6-1.1,5.3-2.7,6.2-2.7,1.4-10.7.3-12.9,2.4-2.5,2.2-1.5,9.5-1.7,15.6-.5,12.5.6,24.4-1.8,32.6-1.2,3.9-7.3,4.1-9.3.3Z"/>
        <path class="cls-2" d="M264.9,52c1.1,1.5,2.9,5.4,3,6.4.7,2.9-1.8,8.5-5.7,8.4-2.5-.1-4.2-4.1-5.7-6.4-1.3-1.8-3.4-5.1-6.8-4.6-5,.8-9.1,5.4-8.4,9.1,2,10.5,13,9.9,19.2,13.7,4.2,2.7,8.3,8.9,7.6,15.4-.3,2.8-1.8,7.6-3.4,10-2.5,3.8-7.8,8.1-15.1,9.5-4.1.2-10.6,2.2-13.9-1.2-1.6-2.1-1.5-4.1-1.3-5.1.3-2.1,2.1-3.4,5-4.2,4.7-1.3,9.9.1,13.8-2.7,2-1.3,4.3-5,2.6-8.6-1.4-2.8-7.5-4.6-10.2-5.6-6.9-2-12.3-6.5-14.5-13.2-3.3-9.9.3-18.3,6-23.2,2.4-2,4.8-3.5,8.2-4.9,5.1-2.6,16.8-.2,19.8,7.5Z"/>
        <path class="cls-2" d="M20,183.8c0,2.4.3,4.5-.2,5.9-1,2.3-5.7,6.5-8.9,3.9-2.9-2.5-6-32-6.7-37.3-1.8-14.5-2.1-15.4-3.8-30.9-.8-7.2-1.2-13.4,4.7-14.8,2.2-.6,5.5,0,8.8.2,9.2.5,18.1,2.2,24.6,6.7,3.3,2.3,8,7.7,9.7,11.8,2.2,5.3,1.9,12,.4,16.2-1.7,4.5-5.7,9.2-9.7,12.4-5.7,4.3-12.7,5.4-20.1,9.9,0,4.6,1.3,10.9,1.3,16ZM13,124c0,4.4-.4,5.3.8,13.8,1.3,5.8.7,11.9,2.8,17.5,9.6-1.8,22.3-7.7,21.1-17.4-1.4-10.6-16.4-14.6-24.7-13.9Z"/>
        <path class="cls-2" d="M45.6,201.2c-3.1,3.4-8.9,1.1-9.3-1.7-.3-2,1.5-6,2.5-9.2,4.8-14.5,10.2-28.3,15.6-42.2,2.7-7,3.9-17.2,11-17.8,5.5-.5,5.2,3.5,5.8,9.7,1.7,15.6,5.4,27.9,7.7,42.1.7,4.5,2.5,11.7,3.3,16.4-.2,3.1-4.6,5-7.1,4.9-6-.7-4.3-17.4-7.9-22.6-4.2.6-10.8,1-14.5,2.5-1.2,4.5-4.7,13.7-7.3,17.8ZM61.9,154.9c-1.7,3.2-4.6,12.7-5.2,17.5,2.3.7,7.7-.3,9-1.5.1-4-1.4-13.8-2.8-16h-.9Z"/>
        <path class="cls-2" d="M99.8,184.4c-.3,2-.2,3.9-.8,5.1-1.1,1.9-5.8,5.1-8.4,2.5-2.4-2.4-2-28.1-2.1-32.7-.1-12.6-.2-13.4-.2-27,0-6.3.3-11.6,5.7-12.3,2-.3,4.9.6,7.8,1,8.2,1.3,16,3.6,21.3,8.2,2.7,2.3,6.4,7.4,7.4,11.1,1.4,4.8.5,10.5-1.3,14-2,3.7-6.1,7.4-10,9.7-5.5,3.1-11.9,3.5-19,6.6-.5,4,0,9.5-.5,13.9ZM99.7,132.3c-.4,3.8-.9,4.5-.7,12,.5,5.1-.6,10.3.7,15.3,8.8-.7,20.7-4.5,20.6-12.9-.1-9.3-13.2-14.2-20.7-14.4Z"/>
        <path class="cls-2" d="M148.7,130.3c1.3,3.1-.8,14.1-1,18.4-.4,8.6-1.3,16.9-1.3,26.2s0,14.2-1.3,16.3c-1.3,1.9-5.3,3.4-7.3,2.6-3-1.2-2.3-6.2-2.1-10.2.2-2.5,0-9.4.3-12.4.5-7.5,1.3-16.8,1.8-25.8.2-2.7.6-12.8,1.3-14.2.9-1.7,3.8-2.8,5.6-2.9.7,0,3.3,0,4,2.1Z"/>
        <path class="cls-2" d="M169.9,191.1c5.3.2,9.5-.2,14-.7,3.1-.3,10.5-2.5,13.5-1.5,1.9.5,3.7,4.1,2.4,8-1.8,5.5-8.1,5.6-13.9,5.7-6.7,0-13.3.4-19.6.9-8,.7-8.3-2.2-8.5-10.1-.1-3.7.4-10.6.8-15,.3-7,1-17.1,1.8-28.7.1-5.9.1-12.4,2.5-15,2.7-3.1,10.3-3.5,17.4-3.5,8.7.1,16.4.3,17.1,4.7.2,3.9-.2,6.7-4.5,6.9-1.2.1-2.7.1-4.6.1-5.1.1-11.9.2-14.2,1.8-1.3.9-1.5,2.8-1.8,5.4-.3,2.7-1.9,10.4.3,12.6.9.8,1.9,1,3.2,1,3.2,0,7.6-1.6,10.7-1.6s3.8,1,4.5,3.3c.8,4.4-1.9,6.6-4.6,7.4-1.2.2-3,.4-4.8.7-3.7.4-8.5.9-10.6,2.4-1.3,1.4-1.4,4.3-1.4,7.3s0,4.9.2,6.8c0,.4.1.8.1,1.1h.1Z"/>
        <path class="cls-2" d="M229.9,122c8.2,2.7,17.3,4.7,19,16.3,1.4,10.1-3,15-6.1,17.8-1.2,1.1-4.9,2.6-5,4.3-.2,2.1,2.8,6,4,8.1,3.4,6,5,9.5,8.7,15.4,1.5,2.5,3.9,5.7,3.4,8.7-.7,3.7-6.8,5.3-10.3,3.5-2.1-1-3.5-4.6-4.6-6.6-2.7-5-4.3-9.6-7.6-14.9-1.7-1.9-2.3-4.9-4.6-6.3-2.2-.6-6.2,1.3-7.1,3-1.6,5.1-.6,16.4-3.1,21.3-1.1,2.1-5.5,4.7-9.1,2.5-3.6-2.2-1.5-8.8-1.1-13.2.6-6.4,1.2-13.9,1.4-21.2.1-7.4.4-14,.6-20.1.2-5.6-.5-13.2,1.1-16.6,1.2-2.7,4.6-3.7,7.4-3.9,2.2-.2,9.2.5,13,1.8ZM237.3,145.5c.6-3-.1-7.2-3.1-9.8-2.6-2.2-11.2-3.1-13.8-2.3-2,6-1.1,17.7-.7,23.8,3.2,0,6.4-2.5,9.2-4.5,2.3-1.5,7.7-3.7,8.5-7.2Z"/>
        <path class="cls-2" d="M295,122.6c1.1,1.5,2.9,5.4,3,6.4.7,2.9-1.8,8.5-5.7,8.4-2.5-.1-4.2-4.1-5.7-6.4-1.3-1.8-3.4-5.1-6.8-4.6-5,.8-9.1,5.4-8.4,9.1,2,10.5,13,9.9,19.2,13.7,4.2,2.7,8.3,8.9,7.6,15.4-.3,2.8-1.8,7.6-3.4,10-2.5,3.8-7.8,8.1-15.1,9.5-4.1.2-10.6,2.2-13.9-1.2-1.6-2.1-1.5-4.1-1.3-5.1.3-2.1,2.1-3.4,5-4.2,4.7-1.3,9.9.1,13.8-2.7,2-1.3,4.3-5,2.6-8.6-1.4-2.8-7.5-4.6-10.2-5.6-6.9-2-12.3-6.5-14.5-13.2-3.3-9.9.3-18.3,6-23.2,2.4-2,4.8-3.5,8.2-4.9,5.1-2.6,16.8-.2,19.8,7.5Z"/>
      </g>
      <g id="vyEwvs.tif">
        <path class="cls-1" d="M158.2,114.6c-.3,2.7-1.6,4.5-3.5,6.3-.4.3-.8.9-1.2,1.2-.7.4-.3.2-.9,0-.2,0-.4-.8-.8-.3-.3.3.5.9.6,1.3.4,1.2-.5,2.1-1.4,2.7-1.2.8-2,.8-3.3.6-.2,0-1.1.1-1.2,0-.6-.4,0-.6-.2-1.1-.4-.8-1.7-.6-2.4-1.1-.4-.3-.7-.8-1.2-.8-.5,0-1.2.4-1.7.6-1.2.4-2.4.4-3.5-.2-1.1-.6-1.9-1.5-1.6-2.8.4-1.5.7-2.9.9-4.5.2-1.4.3-2.1,1.4-3,1-.9,1.4-1.7.5-2.9-.8-1.1-1.7-1.9-2.2-3.2-.5-1.4.2-2.3,1.6-1.5.6.3,2.1,2.3,2.6,2.2.3,0,.7-1.2.9-1.5.4-.4.9-.6,1.5-.8.6-.2,1-.3,1.6-.5.7-.3.7-.4,1.3.4.4.5.7,1,.9,1.6.2.5,0,1.4.3,1.7.2-.3,0-.9.2-1.2.3-.3.4,0,.6-.2.2.1.4.1.6,0,.1-.1.3-.3.4-.5.2,0,.3-.2.5-.2.7,0,1.7.8,2.2,1.2,1.1,1,1,1.4.9,2.7,1.3-.7,2.8-1.7,3.5.3.4,1.3.2.9,1.3,1.6.7.4,1.1,1.2,1,2Z"/>
      </g>
      <g id="vyEwvs.tif-2" data-name="vyEwvs.tif">
        <path class="cls-1" d="M167.9,27.2c0-2.1,1-3.6,2.3-5.1.3-.3.5-.8.9-1,.5-.3.2-.1.7,0,.2,0,.3.6.6.2.2-.3-.4-.7-.6-1-.4-.9.3-1.7.9-2.2.9-.7,1.5-.7,2.5-.7.2,0,.8-.2,1-.1.5.3,0,.5.3.9.3.6,1.3.3,1.9.7.3.2.6.5,1,.5.4,0,.9-.4,1.3-.5.9-.3,1.8-.5,2.7,0,.9.4,1.6,1.1,1.4,2.1-.2,1.2-.3,2.3-.4,3.5,0,1.1,0,1.7-.9,2.4-.8.7-1,1.4-.2,2.3.7.8,1.4,1.4,1.9,2.4.5,1,0,1.8-1.1,1.3-.5-.2-1.8-1.7-2.1-1.6-.2,0-.5,1-.6,1.2-.3.3-.7.5-1.1.7-.4.2-.8.3-1.2.5-.5.2-.5.3-1-.2-.3-.3-.6-.7-.8-1.1-.2-.4,0-1.1-.4-1.3-.1.3,0,.7-.1.9-.2.3-.3,0-.5.2-.2,0-.3,0-.4.1-.1.1-.2.2-.3.4-.2,0-.2.2-.4.2-.5.1-1.4-.5-1.7-.8-.9-.7-.9-1-.8-2-1,.7-2.1,1.5-2.7,0-.4-1-.2-.7-1.1-1.1-.6-.3-.9-.9-.9-1.5Z"/>
      </g>
    </g>
  </g>
</svg>