<?xml version="1.0" encoding="UTF-8"?>
<svg id="Calque_1" data-name="Calque 1" xmlns="http://www.w3.org/2000/svg" viewBox="0 0 400 400">
  <path d="M109.2,123.8c-20.4-21.6-51.2-2.2-68.6,13.2-22.4,19.9-24.8,49.4-17.7,77,2.2,8.5,5,16.9,8.1,25.1s6.5,12.1,13.4,9.7,3.4-11.8-2.7-9.6c1,.7,1,.5-.1-.6l-.7-1.2c-.9-1.6-1.3-3.6-1.9-5.3-1.4-3.9-2.7-7.7-3.9-11.6-2.3-7.3-4.2-14.7-5.3-22.2-1.8-13.3-.8-27.8,5.8-39.7s18.7-20.9,30.2-27.7,26.3-10.3,36.2.1,11.5-2.4,7.1-7.1h0Z"/>
  <path d="M50.3,234.1c-10.3,5.5-13.5,17.6-13.5,28.5s4.5,26.3,12,37.1,15.8,18,26,24.3,23,11.4,34.9,5.6.7-11.5-5-8.6c-8.9,4.3-19.5-2.1-26.8-6.9-7.9-5.1-15.1-11.7-20.4-19.4-5.7-8.2-9.6-17.8-10.5-27.8s0-19.7,8.3-24.2.6-11.7-5-8.6h0Z"/>
  <path d="M99.2,290.3c-16.7-2.7-6.9,23.3-3.8,30.1s5,11.7,10.1,15.6,12.8,6,19.3,7.6c14.1,3.4,28.4-.5,41.5-6.1,13.9-5.9,20.1-19.4,27.7-31.6s-5.2-10.5-8.6-5c-5,8-9.7,19-17.6,24.6s-8.6,4.2-13.1,5.6c-5.2,1.7-10.7,3.5-16.2,3.9s-10.2-.8-15.2-2.3-9.4-2.3-12.7-5.6-5-8.6-6.8-12.6-5.9-14.4-4.2-15.2l-3.9.5,1,.2c6.3,1,9-8.6,2.7-9.6h0Z"/>
  <path d="M154.3,208.1c14.4-10.5,32.8-16.3,50.5-11.5,16.6,4.5,29.2,16.9,33.2,33.7s2.6,35.8-4.1,51.7-19.4,31.6-37.2,31-6.4,9.8,0,10c16.1.5,29.5-10.1,38.4-22.7s13.8-29,14.7-44.9-1.2-33.6-10.7-46.7-22.2-20.3-36.8-22.8-37.9,2.5-53.1,13.6c-5.1,3.8-.2,12.4,5,8.6h0Z"/>
  <path d="M116.5,195.2c-19.6,17.3-6,47.9,8.2,63.9s19.7,13.9,32.2,12.3c11.8-1.5,24.8-6.5,33.3-15s-2.5-11.7-7.1-7.1c-6.6,6.7-16.6,10.4-25.7,12s-18.8-1.6-25.6-9.3c-10.6-12-23.2-36.6-8.2-49.8s-2.3-11.3-7.1-7.1h0Z"/>
  <path d="M127.1,253.1c-1.8-3-5.3-3.6-8.5-2.6s-6,3.2-8.6,5.4c-5.3,4.5-10.2,10.6-9.8,18s1.1,2.5,2.5,2.5,2.6-1.1,2.5-2.5c-.3-5.5,3.4-10,7.3-13.5s3.9-3.5,6.2-4.6,1.9-.7,2.7-.7.8,0,.3,0c.2,0,.5.1.7.2-.4-.1.2.2,0,0,.1.1.2.2.3.3-.1-.2-.1-.1,0,.1,1.6,2.8,6,.3,4.3-2.5h0Z"/>
  <path d="M107.9,214.3c-6.2.2-11.8-2.6-16.9-5.9s-8.7-6.8-4.3-9.5.5-11.9-5-8.6-7.8,15-2.2,21.4,18.7,12.9,28.5,12.6c6.4-.2,6.4-10.2,0-10h0Z"/>
  <path d="M48.7,190.8c2.9-7.8,6.9-15.3,12.8-21.2,4.5-4.4,15.2-12,21.1-6.2s11.7-2.6,7.1-7.1c-8.9-8.6-22.3-4.1-31,2.5-9.6,7.4-15.5,18.2-19.7,29.4s7.4,8.6,9.6,2.7h0Z"/>
  <path d="M87.6,112.3c.9-16.6,17.4-25.3,31.2-30.3,14.4-5.1,33.1-9.3,44.1,4.5s11-2.1,7.1-7.1c-13.6-17.2-37.4-13.2-55.4-6.5-17.9,6.6-35.8,18.5-36.9,39.3s9.6,6.4,10,0h0Z"/>
  <path d="M163.5,107.2l-.8-.2,3,2.3c.3.4,4.1-5.2,5-6.3,1.9-2.5,3.9-4.9,6-7.3,4.3-4.8,8.9-9.2,14-13.1,10.2-7.7,22.4-13.2,35.2-14.5,13.2-1.4,25.5,2.3,37.2,8.1s9.7,5.7,11.5,11.5,2.2,12.1,5.5,17.6,12,.5,8.6-5-3.2-15.3-7.6-22-10.6-9.6-17-12.5c-15.6-7-31.1-9.9-47.9-6.1-15.8,3.6-30,12.4-41.5,23.7-4.7,4.6-29.6,29.5-13.8,33.6s8.9-8,2.7-9.6h0Z"/>
  <path d="M227.6,87.5c-3.1-3.4-8.4-2.3-10.4,1.8s-1.3,11.1-.8,15.9c1.2,10.1,5.6,20.3,15.5,24.6,6.1,2.7,12.8,2.6,19.3,3.2s12.5,1.9,15.5,7.4,3.5,14.4,4.1,20.9.6,15.6,0,23.4,7.1,4.8,7.5,0c1.1-12.2.6-24.5-1.7-36.5-1.8-9.9-5.3-17.6-15.5-20.9-9.7-3.2-22.7.3-30.6-7.3s-5.1-7.8-6-12.3-.7-4.8-.8-7.3,0-2.3,0-3.5c0-2.1.3-2.3-1.3-4,3.2,3.6,8.5-1.7,5.3-5.3h0Z"/>
  <path d="M226.6,116.3c-16.4-.3-31.7,8.2-40.4,22.1-3.4,5.5,5.2,10.5,8.6,5,6.8-11,18.9-17.4,31.8-17.2s6.4-9.9,0-10h0Z"/>
  <path d="M276.2,147.7c9.4-7.3,20.3,4.5,26,10.9,3.2,3.6,8.5-1.7,5.3-5.3-9.2-10.3-23.2-21.3-36.6-10.9-3.8,2.9,1.5,8.2,5.3,5.3h0Z"/>
  <path d="M281.6,86.9l-.7-.3,2.3,3c-2.5,3.1-2.4,4.1.2,2.9l1.8-.4c1.9-.4,3.9-.5,5.9-.6,3.8-.1,7.7.1,11.4.7,7.2,1.1,14.5,2.5,19.5,8.3,8.9,10.1,18.4,23.1,19.3,37s10.4,6.4,10,0c-.7-10.6-4.9-20-10.7-28.7-5.5-8.2-11.7-18.3-21-22.3s-21.1-5.6-31.3-4.7c-4.2.4-10.6.6-13.6,4.1s-1.9,8,1.8,9.7c5.8,2.7,10.9-5.9,5-8.6h0Z"/>
  <path d="M330.9,137.4l-.5-.5,1.5,3.5c-1.2,2-1,2.7.8,2.3.9,0,1.8,0,2.7,0,1.4,0,2.7.1,4.1.3,3.2.3,6.3.9,9.3,1.8,5.7,1.7,11.3,4.7,14.7,9.7,7.8,11.4,2.9,30.1-2.7,41.5s-15.6,22.7-27.8,29.1-15.3,6.6-23.2,9-15.5,4-22.7.3c-5.7-2.9-10.8,5.7-5,8.6,15,7.6,32.2.7,46.7-5.1,14.3-5.8,26.2-14.8,35.1-27.4s13.3-26.8,13.3-41.5-7.8-27-22-32.6c-7.1-2.8-14.9-3.8-22.5-3.8s-6.5.3-8.9,2.8-2.6,6.4,0,8.9c4.7,4.4,11.8-2.7,7.1-7.1h0Z"/>
  <path d="M282.8,204.1c-1.1,23.1-14.1,44.4-34,56s-.5,11.9,5,8.6c23-13.5,37.7-38.1,38.9-64.7.3-6.4-9.7-6.4-10,0h0Z"/>
  <path d="M230.3,195.6c0-5.4,2.3-10.5,6.8-13.5s.3-12.3-5-8.6-11.9,13.1-11.8,22.2,10.1,6.4,10,0h0Z"/>
  <path d="M328.9,177.2c5-.6,2.3,11,1.3,13.3-2.1,4.7-5.7,8-10.3,10.2s-.6,8.5,3.8,6.5c8.1-3.8,13.9-11.5,15.3-20.4s-1.1-18-10.1-17-4.8,8,0,7.5h0Z"/>
  <path d="M146.4,126.4c-6.3.8-10.6,5.2-11.4,11.6s3.5,13.6,8.8,17.9,13.3,6.8,19.7,10.6,11.4,9.9,13.9,17.1,11.8,3.4,9.6-2.7c-3.6-10.2-10.4-18.7-20-23.8s-10.6-4.5-15.4-7.6-4.4-3.4-5.7-5.7-2.6-6.9.3-7.3c6.3-.8,6.4-10.8,0-10h0Z"/>
  <path d="M147.8,154.4c-9.3-3.2-19.3-2.9-28.4.9s-2.5,9.1,2,7.2c8-3.4,16.2-3.7,24.4-.9s6.5-5.7,2-7.2h0Z"/>
</svg>