<?xml version="1.0" encoding="UTF-8"?>
<svg id="Calque_1" data-name="Calque 1" xmlns="http://www.w3.org/2000/svg" viewBox="0 0 400 400">
  <defs>
    <style>
      .cls-1 {
        fill: #fff;
      }
    </style>
  </defs>
  <g>
    <g>
      <path class="cls-1" d="M339,85.8c.6-.3,1.3-.5,2-.6,1.4-.1,2.9.3,4.2,1,3.2,1.7,5.4,4.7,7.1,7.8,0,1,0,1.9,0,2.9-.4.9-1.1,1.6-2,2.1-2.5,1.2-5.4,0-7.7-1.2-.6-.3-1.1-.6-1.7-1-1.6-1.1-3-2.4-3.8-4.1-1-2.3-.4-5.5,1.9-6.8Z"/>
      <path d="M340,89.4c2.4-1,4.4.4,6,2.2s1.6,1.8,2.1,2.8c.5.8.6,1,.3.6-.2,1,0,1.2.2.7.3-.4.2-.4-.3,0-.7,0-1.3,0-2-.3-1.2-.4-2.5-1.2-3.6-1.9s-3.8-3.2-1.9-4.5c4-2.7.2-9.2-3.8-6.5-11.9,8.2,4.1,24.6,14.6,19.8s-3.5-24.4-13.7-20.2-3.2,2.5-2.6,4.6,2.7,3.4,4.6,2.6Z"/>
    </g>
    <path d="M355.6,98.8c1.7-4,1.1-8.5-2.8-11s-4.2-.4-5.1,1.3-.4,4,1.3,5.1c-.5-.3.4.4,0-.1.2.3.2.4.1.2,0-.2,0-.1,0,.2,0-.7,0,.3,0,.5,0-.7-.2.5,0,0-.8,1.8-.6,4.1,1.3,5.1s4.3.6,5.1-1.3h0Z"/>
    <path d="M349,95.9c.1.3.3.5.4.8.2.4.6.8,1,1.1.4.3.8.6,1.3.7.5.2,1,.2,1.5,0,.5,0,1-.2,1.4-.4l.8-.6c.5-.5.8-1,1-1.7v-1c.1-.7,0-1.3-.4-1.9-.1-.3-.3-.5-.4-.8-.2-.4-.6-.8-1-1.1-.4-.3-.8-.6-1.3-.7-.5-.2-1-.2-1.5,0-.5,0-1,.2-1.4.4l-.8.6c-.5.5-.8,1-1,1.7v1c-.1.7,0,1.3.4,1.9h0Z"/>
    <g>
      <path class="cls-1" d="M372.2,51c.6-.1,1.1.1,1.6.4,3,1.5,6.3,3.6,6.2,6.8,0,2.4-1.9,4.4-3.7,6.1-8.4,7.6-19.2,13.9-22.9,24.3-.5,1.3-.8,2.6-1,4,0,.5-.1,1-.1,1.5-1.7-3.1-3.9-6.1-7.1-7.8-1.2-.7-2.7-1.1-4.2-1,6.2-3.6,10.8-9.4,14.9-15.2,4.6-6.6,8.9-13.6,15.4-18.5.3-.2.6-.4.9-.5Z"/>
      <path d="M372.2,54.7c-1,0,1,.5,1.4.8,1.1.7,1.8,1,2.1,2.4.5,2.3-2.6,4.3-4.3,5.7-3.6,3.1-7.4,6-11,9.2-6.3,5.8-11.1,12.6-11.9,21.3l7-1.9c-3.2-5.6-7.7-10.4-14.5-10.7l1.9,7c6.5-4,11.4-9.7,15.8-15.9s8.7-14.6,15.4-18.4.4-8.8-3.8-6.5c-13.7,7.7-17.7,26-31.2,34.3-3.2,2-1.8,6.8,1.9,7s6.3,3.9,8,7,6.7,1.6,7-1.9c1.2-12.6,14.7-19.4,22.9-27.1,3.5-3.3,6.4-8.1,3.8-12.9s-6.6-6.6-10.5-6.8-4.8,7.2,0,7.5Z"/>
    </g>
    <path d="M339.1,82c-.8.5-1.6.9-2.5,1.3s-1.5,1.4-1.7,2.2-.1,2.1.4,2.9,1.3,1.5,2.2,1.7,1.9,0,2.9-.4,1.7-.8,2.5-1.3c1.7-1,2.4-3.4,1.3-5.1s-3.3-2.4-5.1-1.3h0Z"/>
    <path d="M348.7,97.9s0,0,0,0v-1c0,.4,0,.8,0,1.1.1.5.3.9.7,1.3.3.4.6.7,1.1,1,.4.3.9.4,1.4.4.5.1,1,0,1.5,0l.9-.4c.6-.3,1-.8,1.3-1.3l.4-.9c.2-.7.2-1.3,0-2,0,0,0,0,0,0v1c0-.4,0-.8,0-1.1-.1-.5-.3-.9-.7-1.3-.3-.4-.6-.7-1.1-1-.4-.3-.9-.4-1.4-.4-.5-.1-1,0-1.5,0l-.9.4c-.6.3-1,.8-1.3,1.3l-.4.9c-.2.7-.2,1.3,0,2h0Z"/>
    <path d="M342.3,89.8c-3,3.1-5.9,6.4-8.4,9.9s-2.4,4.5-3.9,5.8c-.4,1.8-1.1,2-2.1.6-.8-.8-1.6-1.5-2.3-2.3-3.2-3.3-5.5-7.1-8.3-10.6s-3.7-3.9-6.4-3.6-4.1,3.6-5.4,6.2c-2,3.8-5.3,6.1-8.2,9-6.9,6.8,2.6,13.1,7.2,17.9s8.7-1.8,5.3-5.3-4.3-3.9-5.9-6.1-1.3-.6-.2-2.2,1.9-1.7,2.7-2.5c3.4-3.4,5.3-7,7.5-11.2l-2.2,1.7c-.9.4,6.8,9.9,7.6,10.7,2.6,2.8,5.9,6.8,10.1,7s5.8-3.4,7.7-6.3c3.1-4.9,6.7-9.3,10.7-13.4s-1.9-8.8-5.3-5.3h0Z"/>
    <g>
      <path d="M295.7,116.9c.4,0-.2.7-.5.4s0-.8.4-1.1c2.7-2.8,5.5-5.4,8.5-7.9.3-.3.7-.6,1.1-.6.6,0,1,.4,1.4.8,8.2,9.1,17.7,17.2,28.2,23.8,1.4.9,2.8,1.8,3.4,3.2,1,2.5-1,5.4-3.1,7.4s-4.5,4.2-4.6,7c-12.9-9.7-25-20.3-36.2-31.7"/>
      <path d="M292.5,118.8v.2c.3-1.5.5-3,.7-4.5l-.3.2,3.6-1h-.3c.9,1.1,1.8,2.3,2.8,3.5,0,1,3.1-2.2,3.5-2.5,1.5-1.4,2.9-2.9,4.7-3.8l-2.9.4s2.5,2.9,3.3,3.7c1.8,1.9,3.7,3.7,5.7,5.5,3.5,3.2,7.2,6.2,10.9,9s3.8,2.8,5.8,4.1,5.3,2.4,3.5,5.6-5.8,5.1-6.6,9.7l5.5-2.2c-12.6-9.5-24.4-19.9-35.5-31.1s-8.7,1.9-5.3,5.3c11.6,11.6,23.9,22.3,37,32.2,1.8,1.4,5.1,0,5.5-2.2.7-4,5.1-6.1,6.9-9.6s1.6-6.1-.2-8.7-4.7-3.9-7.1-5.5c-4.1-2.8-8.1-5.8-11.9-9s-7-6.3-10.2-9.7-3.5-4.5-6.4-4.5-6.5,4-8.7,6.1-5,4-5,7.2,1.2,3.3,2.8,3.6,2.9,0,4.2-1.1,1.4-3.2.6-4.5v-.2c-2.5-4.2-9-.4-6.6,3.8h0Z"/>
    </g>
  </g>
  <g>
    <path d="M35.9,178.3l.2-3.2h-10c-.4,19.4-2.3,38.8-5.6,58s6.2,9.1,9.1,3.9c.6-1,1.2-2.1,1.8-3.1,3.2-5.6-5.5-10.7-8.6-5-.6,1-1.2,2.1-1.8,3.1l9.1,3.9c3.5-20,5.5-40.3,6-60.6s-9.5-6.3-10,0l-.2,3.2c-.5,6.4,9.5,6.4,10,0h0Z"/>
    <path d="M31,176.7c7.8-1,15.6-1.7,23.4-1.9s6.4-10.2,0-10-15.7.9-23.4,1.9-6.4,10.9,0,10h0Z"/>
    <path d="M29.9,205.9c6.7,1.1,13.2.8,19.7-1.1,6.1-1.8,3.5-11.5-2.7-9.6-4.7,1.4-9.5,1.9-14.4,1.1-6.3-1-9,8.6-2.7,9.6h0Z"/>
    <path d="M60.9,237.6c2.2-9.8,4.4-19.6,6.5-29.4l3.2-14.2,1.7-7.6.8-3.8c1-1.8.7-2.4-1.1-1.8l-4.8-3.7c5.9,19.4,12.3,38.7,19.1,57.8s11.8,3.4,9.6-2.7c-6.9-19.1-13.2-38.4-19.1-57.8s-2.6-3.7-4.8-3.7c-4.5,0-6.9,3.2-8.1,7.2-1.9,6.1-2.8,12.7-4.2,19-2.8,12.6-5.6,25.3-8.4,37.9s8.2,8.9,9.6,2.7h0Z"/>
    <path d="M67.4,214.3c7-2.3,13.9-3.2,21.2-2.7s6.4-9.5,0-10c-8.1-.6-16.2.5-23.9,3.1s-3.5,11.7,2.7,9.6h0Z"/>
    <path d="M131.3,179.8c.4-4.6-2.9-8.6-7.2-10s-10.1.3-13.9,3.8c-7.4,6.7-14.5,18.6-7.5,27.9,3,4,7.5,5.5,12.3,5.1s4.8-.9,7.2-1.2c3.5-.5,3.8.7,5,3.9,1.9,5.2,3.7,12.1-.5,16.7s-5.2,2.9-8.2,3.2-3.2,0-4.8,0-3.9-.8-2.6-.1l2.3,3-.3-.9-1.3,4.9.6-.6c4.6-4.5-2.5-11.6-7.1-7.1l-.6.6c-1.3,1.2-1.7,3.2-1.3,4.9,1.4,5.2,6.4,5.3,11,5.4s10.8-.4,15.4-3c9.5-5.6,10.6-17.4,7.7-27s-3-9.9-7.3-12.4-8.5-1.4-12.8-.6-4.9,1.3-6.6-.3-1.2-4.5-.4-6.4,2.9-4.7,4.6-6.7,6.4-5.5,6.2-3.1c-.5,6.4,9.5,6.4,10,0h0Z"/>
    <path d="M150.5,176.4c1.9,17.8,2.7,35.6,2.4,53.4l9.3-2.5c-.4-.8-.8-1.6-1.2-2.3-3-5.7-11.6-.7-8.6,5,.4.8.8,1.6,1.2,2.3,2.4,4.5,9.2,2.2,9.3-2.5.3-17.9-.5-35.7-2.4-53.4s-10.7-6.4-10,0h0Z"/>
    <path d="M136.6,175.8c12.8,2.2,27.9-2.2,39.6,4.2s10.7-5.5,5-8.6c-13.3-7.3-27.8-2.8-42-5.2-6.3-1.1-9,8.5-2.7,9.6h0Z"/>
    <path d="M215.2,195.1c2-11.3-3.7-24.8-15.7-27.8s-20.1,14.1-22.4,23.8-1.4,25.3,4.9,36,7.6,9.4,13.8,9.3,11.2-3.8,14.2-8.8c8.2-13.4,5.7-33.5,0-47.3s-12.1-3.3-9.6,2.7c4.5,10.7,6.2,22.8,3.2,34.2s-4.5,11.6-9.8,8.6-5.9-9.4-6.9-13.5c-2.3-9.2-1.1-19.3,3.3-27.7,1.1-2,2.4-4.9,4.2-6.3,2.6-2.1,4.8-.9,7.1,1.3,3.4,3.3,5,8.2,4.1,12.8s8.5,9,9.6,2.7h0Z"/>
    <path d="M248.7,173.9c-1.1-4.2-4.4-7.2-8.8-7.6s-9,2.8-11.8,6.6c-6.8,9.5-10.6,21.9-11.8,33.4-1.1,10,1.2,22,10.7,27.2s19.9-.6,22-10.4-8.3-9-9.6-2.7-6.6,6.3-10.1,2.1-3.6-10.9-3-16.3,2.2-11.3,4.3-16.5,2.5-5.6,4-8.3,4.2-6.3,4.5-4.9c1.6,6.2,11.3,3.6,9.6-2.7h0Z"/>
    <path d="M253.1,176.4l2.6,51.8,8.5-3.5c-1-1-1.9-1.9-2.9-2.9-4.6-4.5-11.7,2.5-7.1,7.1s1.9,1.9,2.9,2.9c3,2.9,8.8.9,8.5-3.5l-2.6-51.8c-.3-6.4-10.3-6.4-10,0h0Z"/>
    <path d="M263.1,205.9c6.5.6,13,1,19.5,1.1s6.4-9.9,0-10-13-.5-19.5-1.1c-6.4-.6-6.4,9.4,0,10h0Z"/>
    <path d="M284.4,172.4c-.9,18.2-1.8,36.4-2.8,54.7s9.7,6.4,10,0c.9-18.2,1.8-36.4,2.8-54.7s-9.7-6.4-10,0h0Z"/>
    <path d="M308.5,176.7l-2.6,27.2c-.8,8.3-2.4,16.9-2.4,25.3s4.4,9.2,10.6,8.4c8.8-1.1,17.6-2.4,26.4-3.8s3.6-10.6-2.7-9.6-13.5,2-20.2,2.9-4,0-5.4.7c-1.5,0-1.4.2.2.7,1,1,1.5.9,1.3-.3.7-1,.3-3.6.5-4.9l.6-5.8c1.3-13.6,2.6-27.2,3.9-40.8s-9.4-6.4-10,0h0Z"/>
    <path d="M317.6,203.4c7-1,13.9-1.9,20.9-2.9,6.3-.9,3.6-10.5-2.7-9.6-7,1-13.9,1.9-20.9,2.9-6.3.9-3.6,10.5,2.7,9.6h0Z"/>
    <path d="M318.2,176.9c7.8-1.4,15.9-1.5,23.7-.3,6.3.9,9-8.7,2.7-9.6-9.8-1.4-19.3-1.4-29,.3-6.3,1.1-3.6,10.7,2.7,9.6h0Z"/>
    <path d="M366.3,162.8c-.9,11.7-1.3,23.3-1.2,35s10.1,6.4,10,0c-.1-11.7.3-23.4,1.2-35s-9.5-6.4-10,0h0Z"/>
    <path d="M373.5,223.2c-4.1-1.7-8.7-1.2-11.8,2.2s-3.3,8.2-.7,11.8,8.2,5.7,12.7,3.4,5.8-5.9,5.5-9.9-4.3-8.8-9.2-8.5-8,3.5-9.5,7.5,0,10.2,4.9,12,7.7-.2,10.4-2.7,5.3-9.2,2.6-13.6-3.9-3.7-6.6-3.8-4.9,1.3-6.5,3.4-.4,5.6,1.8,6.8,5.2.4,6.8-1.8c-.5.6-2.4,1.7-3.2,1.3s-.6-.4-.8-.7c.1.2-.6-.7-.2-.7,0,0-.3,1.1-.3,1.2.1-.4,0,0-.2.2.4-.6-.2.2-.3.3-.6.6.5-.3-.2.2s-.8.7-.3.2c-.6.6-.1-.3,0,0h-.4c.4,0,.7,0,1,.3-.3-.2,1.3.9.8,1s.6-1.2.4-.9c.5-.6-.4.3.2-.2.3-.1.3-.2,0-.1-.3,0-.2,0,.3-.1-.4-.2-.9.1-1.3-.2s-.3-.5-.3-.5-.1.4,0,.2c.2-.5,0,0-.3.3.3-.3.5,0,.2-.1-.6-.2.1,0,.1,0,.7.4-.6-.5,0,0-.5-.4,0-.5-.1-.2,0,0,0,.6,0,.6,0,.2.4-.5,0,0s-.1-.1.2,0c-.5,0,0,0,.2,0-.5,0-.5,0-1-.2,2.5,1.1,5.4.7,6.8-1.8s.7-5.8-1.8-6.8h0Z"/>
  </g>
</svg>