<?xml version="1.0" encoding="UTF-8"?>
<svg id="Calque_1" data-name="Calque 1" xmlns="http://www.w3.org/2000/svg" viewBox="0 0 400 400">
  <path d="M298.1,177.2c-7.8-7.5-14.5-15.4-18.1-25.8s-3.8-19.3-1.1-28.8c4.8-16.9,20.7-31,38.7-30.9s17.6,3.3,24.3,9.1,5.4,5.5,7.3,8.8,2.1,4,2.2,6.2c.2,5.3-5.4,3.1-8.2,1.3-7.5-4.9-15.2-10.2-24.6-9.7-7.8.4-15,4.6-20.1,10.5-15.4,17.7-9.3,41.5-3,61.7s6.3,2.7,5.9-.8c-1.9-15.2-3.1-34.3,7.2-47.1,8.8-10.9,30-9.3,35.4,4.7s1.5,5.3-1.8,6.6-4.8-.5-6.5-1.2c-3.1-1.3-5.8-2.7-9.2-3.2-5.9-.8-11.8,1.3-16.6,4.8-11.6,8.5-13.8,23.2-15.6,36.5h6c.6-9.1,5.6-18,14.2-21.7s8.7-2.3,13.1-1.3,13.6,5,8.7,9.9-10.8,1.1-15.3.5-6.9-.3-10.2.6c-7.1,2.1-13.1,7.2-16.1,14s3.6,6.5,5.2,3c2.6-5.8,7.5-10.2,13.9-11.6,6.3-1.4,12.4,1.9,18.8,1.2,10.3-1.1,15.1-12,6.6-18.9s-19.7-6.8-28.6-2.3-15.4,15.7-16.2,26.5,5.5,3.7,6,0c1.8-13.3,5.4-34.2,22.5-35.5s11.9,5,18.7,4.7,8.9-3.8,9.2-8.8c.7-10.8-11-18.9-20.4-21.1s-22.3,2-28.6,12-8.2,31.9-6.3,47.6l5.9-.8c-4-12.9-8.5-26.8-5.9-40.4,1.9-10,8.7-20,18.6-23.2s11.7-.5,17,2.2c5,2.5,9.4,7,14.8,8.6,8.6,2.5,13.2-5.4,11-12.9-4.8-17.1-25.3-27.4-41.9-26.3-18.5,1.2-34.3,14.8-40.7,31.9s-3.8,22.9-.5,33.8,11.1,21.3,20.1,29.9,7-1.6,4.2-4.2h0Z"/>
  <path d="M293.4,182.6c3.3,24.5-.3,49.6-10.8,72s-11.3,21-19.3,29.7-22.4,13.2-36,15.7c-13.8,2.5-27.7,3.8-41.5.8-12.4-2.7-24.1-7.8-35-14.3-20.4-12.2-37.5-29.7-49.3-50.3s-19-47.8-22.9-73.2c-1.9-12.6-3.3-25.3-4.4-38s-1.4-26.8,5.8-38.1,19-15.2,31.1-10.6c11.4,4.3,18.8,14.6,23.7,25.3,9.7,21.1,11.6,45.1,22.7,65.7,11.8,21.9,34.4,35.7,59.2,36.7,13.1.6,26.2-2.5,38-8.1,12.2-5.9,23.2-18.2,37.5-18.2s3.9-6,0-6c-12.9,0-22.6,8.5-33,14.9s-25.2,11.4-39,11.5c-27,.1-49.8-15.8-60.5-40.2-10.1-22.8-11.3-49.8-25.9-70.5-12.9-18.3-39.7-27.3-55.8-7.6-7.5,9.1-10.1,20.8-10.2,32.3-.2,13.7,1.9,27.7,3.7,41.3,3.4,26.5,8.8,53.2,20.6,77.4,21.9,44.9,71.1,83.1,123.1,77.2s15.4-2.3,23-3.9,14.1-3.4,20.2-7.3c11.3-7.4,19.6-20,26-31.7,13.6-25,19.1-54.2,15.3-82.4-.5-3.8-6.5-3.8-6,0h0Z"/>
  <path d="M71.7,88c-6.7,1.8-10.4-13.9-9.7-18s7.3-10,11.4-5.1,6.1-.2,5-2.9c-3.9-9.7-4.8-20.3-2-30.4s3-10.1,7-12.4c7.5-4.2,9.5,8.1,9.9,12.5s5.9,3.9,6,0c.3-9,2.6-27.5,16.2-24,7.1,1.8,4.9,10.5,3.8,15.8s-2.9,14.1-4.3,21.2l5.9.8c.1-7.1,4.9-14.3,12.6-14.4,9.4-.1,12.1,8.8,12.2,16.6.2,12.9-4.6,26.6-16.4,33.2s-.4,7.1,3,5.2c16-8.9,24.2-32.9,17.4-50s-11.8-12.4-20.3-10.4c-9.1,2.1-14.4,11-14.6,19.9s5.2,4.2,5.9.8c2-9.8,5.3-20.1,5.7-30.1s-3.4-13.2-10.5-14.4-12.4,1.5-16.3,6.1c-5.5,6.6-6.2,15.7-6.4,23.9h6c-.6-6.7-1.8-14.3-8.3-17.9s-11.3-.5-14.8,4c-9.7,12.3-9.2,31.9-3.6,45.7l5-2.9c-6.9-8.1-19.4-1.7-21.4,7.3s5,28.9,17.1,25.7c3.7-1,2.1-6.8-1.6-5.8h0Z"/>
  <path d="M68,108v-.8c-.4.9-.9,1.7-1.4,2.6h-.9c.3-2,.5-3.9.8-5.9-12.2,1.4-24.8,7.5-31.7,18s.2,7.2,4.8,8.9c7.7,2.8,15.7,4.8,23.9,6.1s5.4-5.2,1.6-5.8-10.2-1.9-15.2-3.3-4.7-1.4-7-2.2-3.3-.8-3-.5c-.7.7-.6.5.3-.5.5-.7,1.1-1.4,1.7-2.1,6.3-7.1,15.2-11.6,24.6-12.7s4.4-5.1.8-5.9-5,1-5.3,4,5.7,3.8,6,0h0Z"/>
  <path d="M40.6,126.4c4.1,0,8.2.2,12.4.3s3.9-5.9,0-6-8.2-.2-12.4-.3-3.9,5.9,0,6h0Z"/>
  <path d="M69.6,128.7c-16.7,2.3-20.3,23.8-18.6,37.6s5.6,11.5,12.1,12.6c7.2,1.2,13.7-3.2,17.1-9.4s-3.3-6.4-5.2-3-7.6,8.1-12.9,5.9-5.4-8.3-5.2-13.6c.3-9.8,2.5-22.7,14.3-24.4s2.2-6.3-1.6-5.8h0Z"/>
  <path d="M97.7,244.3c5.6,3.3,11.8-1.4,12.7-7.3s-2.1-7.7-2.4-11.8-1.5-2.3,1.1-2.5,3.1,3.6,2.7,3.1c1.3,1.8,2.2,3.9,3.3,5.8,3.1,5.5,9.5,8.9,15.4,5.1,6.1-3.9,5.4-11.6,1.3-16.6s-4.6-3.9-4.6-5.3l.9-1.1c.8-1.7,1.4-1.4,1.8.9.4,1,.8,2,1.2,2.9,1.3,3.1,3.2,6,6.3,7.6,5.7,2.8,11.3-1,12.5-6.8s0-6-1.5-8.6-1.9-2.9-3-4.2-5.6-5.3-3.8-6.7c2.9-2.2,7.2,4.9,9.4,6.6s6.1,3.2,9.3,2c7.3-2.8,5.3-11.9,2.2-17s-3.4-4.4-3.4-6.6,1.4-.1,3.1.9c2.7,1.6,6.2,2.1,8.3-.6s1.3-2.5.5-3.6c-2.1-3-4.1-6.1-5.8-9.4s-7-.4-5.2,3,3.7,6.4,5.8,9.4l.5-3.6c0,0-6.4-3.8-7.5-3.8-2.4,0-4.4,1.3-5.3,3.5-2.8,7,4.3,11.8,5.7,17.9s.5,2.6.1,3.1c-1.2,1.7-4.4.4-5.4-.5s-2.2-2.6-3.4-3.8c-2.1-2.1-4.5-3.8-7.5-4-5.6-.4-9.5,4.2-7.6,9.6s3.4,5.1,5.3,7.4,2.9,3.5,3.3,5.6c.6,3.1-1.3,6.7-4.9,4.3s-3.5-14.4-11.9-13.9-7.8,7.5-5.4,12.1,6.6,6,7.4,9.8-1.5,5.3-4.3,5.1-4.2-3.1-5.5-5.4c-2.5-4.6-8.6-14.2-15.1-10.2s-3.1,4.6-2.8,7.3,1.1,4.2,1.8,6.3.8,2.3,1,3.4c.2,1.6-.2,7.5-3.6,5.5s-6.4,3.2-3,5.2h0Z"/>
  <path d="M172.3,248.4c6.7,14,22.8,26.2,39.1,22.7,13.4-2.8,22.7-20.2,10.5-30.4-2.9-2.4-7,1.4-4.2,4.2,6.1,6.3,16.6,18.1,25.8,9.5,8-7.4,3-18.9-5.7-22.9l-2.3,5.5c7.9,2.4,20.7,3.5,22.3-7.6s-9-15.5-17.8-15.9-3.9,5.8,0,6,12.6,2.2,12,8.6-10.5,4.5-14.8,3.2-5.4,4-2.3,5.5,5.1,2.9,6.2,5.8,0,7.8-3.8,8.7c-5.7,1.4-11.8-7-15.2-10.5l-4.2,4.2c4.3,3.6,5.2,9.5,2,14.2s-9.9,7-15.8,6.4c-11.7-1.1-21.4-10-26.3-20.2-1.7-3.5-6.8-.4-5.2,3h0Z"/>
  <path d="M171.4,303.1c-.9,7.8,4.7,15.7,12.7,16.7s15.5-5,16.7-12.8-5.2-5.4-5.8-1.6-4.8,9.1-10.1,8.4-8-5.9-7.5-10.8-5.6-3.8-6,0h0Z"/>
  <path d="M216.8,303.5c-2.9,6.9,2.6,14.4,10.1,14s12.7-9.3,15.1-16.6-4.6-5.3-5.8-1.6-2.7,8.9-6.6,11.2-9-.5-7-5.4-4.3-5.1-5.8-1.6h0Z"/>
  <path d="M224,314.9c-.4,16.8-.8,33.5-1.1,50.3s5.9,3.9,6,0c.4-16.8.8-33.5,1.1-50.3s-5.9-3.9-6,0h0Z"/>
  <path d="M184.8,319.3c-1.2,7.5,1.1,14.9,1.6,22.3s.3,17.6-1,26.3,5.2,5.4,5.8,1.6c1.2-8,1.8-16,1.4-24s-3.3-16.8-2.1-24.6-5.2-5.4-5.8-1.6h0Z"/>
  <path d="M186.3,366.2c-1.7,8.7-11.7,12.6-12.1,22.1s5.1,4.1,5.9.8c1.3-5.3,3.7-11,7.9-14.7s-.3.6-.3,1.8.9,3,1.2,4.3c.8,3.3,1.1,6.5,1.2,9.9s5.1,4.2,5.9.8c1.8-7.5.8-14.8-3-21.5l-4.7,3.6c4.4,4,9.1,7.3,14.4,9.9s6.5-3.5,3-5.2-9.2-5.3-13.2-9-6.4.6-4.7,3.6c3,5.3,3.8,11,2.4,16.9l5.9.8c-.2-5.4-1-10.7-2.6-15.8s-2.1-6.6-5.7-6.6-5.6,3.7-7.2,5.8c-3.1,4.1-5.1,8.7-6.3,13.7l5.9.8c.3-8,10.3-12.5,11.8-20.5s-5.1-5.4-5.8-1.6h0Z"/>
  <path d="M224,363.6c-3,4.7-5.5,9.6-7.6,14.8s4,5.4,5.5,2.3,2.4-5.2,3.7-7.8.8-3.5,2.4-2.3,1.1,2.7,1.5,3.4c1.7,3.7,4.1,6.5,8.4,6.6s3.8-4,1.5-5.6c-4.7-3.4-7.4-8.2-8.4-13.8l-4.4,3.4c5.7,3.7,11.4,7.4,17.1,11s6.3-3.1,3-5.2c-5.7-3.7-11.4-7.4-17.1-11s-4.8,1-4.4,3.4c1.2,7.3,5.2,13.2,11.1,17.4l1.5-5.6c-3,0-3.8-6-5.5-8.2s-3.3-3.2-5.5-3.2c-5.8,0-8.3,10.4-10.2,14.4l5.5,2.3c1.9-4.7,4.3-9.1,7-13.4s-3.1-6.3-5.2-3h0Z"/>
  <path d="M91.2,107.4c1.2-2.4,2.4-4.9,5.1-5.6s5.2.9,5.3,3.7,6.2,3.9,6,0-4.1-9.5-9.4-9.8-9.8,3.9-12.2,8.8,3.5,6.5,5.2,3h0Z"/>
</svg>