<?xml version="1.0" encoding="UTF-8"?>
<svg id="Calque_1" data-name="Calque 1" xmlns="http://www.w3.org/2000/svg" viewBox="0 0 400 400">
  <path d="M223.8,115.8c-39.4-30.7-97.5-27.2-135.4,4.4-16.8,14.1-28,33.7-33.9,54.7s-4.7,25.6-5.7,38.8c-.9,11.7.6,25.8,8.5,35s9,7.5,14.6,9.5,15,5,22.5,7.5c23.4,7.9,46.9,16.2,71,21.7,14.6,3.4,30.7,6.2,45.5,2,19.5-5.5,30.7-23.4,38.2-41,16.3-38.4,15.1-87.4-12.6-120.4-3.8-4.5-8-8.6-12.6-12.3s-12.1,3-7.1,7.1c32.2,26,38.7,69.9,27.8,108.1-4.8,17-13.4,37.6-29.8,46.3s-23.4,4.8-34.8,3c-19.3-3.1-38.1-9.3-56.6-15.4-12.6-4.1-25.2-8.4-37.8-12.6s-13-3.4-18.1-7.5c-5.2-4.2-6.7-9.8-8-16.1-2.4-11.3-.4-25.5,1.5-36.9,3.1-17.7,9.3-35.1,20.2-49.5,30.6-40.5,95.1-50.8,135.5-19.3,5,3.9,12.1-3.1,7.1-7.1Z"/>
  <path d="M242.3,262.5c6.3-20.7,10.9-41.9,13.2-63.4s0-38.7-9.6-55.2c-3.2-5.6-11.9-.5-8.6,5,9,15.6,10,34.5,8,52.1s-6.7,39.6-12.6,58.8c-1.9,6.2,7.8,8.8,9.6,2.7h0Z"/>
  <path d="M235,272.4h-.2c-1.6,2.1-3.2,4.2-4.8,6.3,36.9-.4,73.8.2,110.6,1.7s6.4-9.7,0-10c-36.8-1.5-73.7-2.1-110.6-1.7-3.1,0-5.8,3.2-4.8,6.3s3.4,6,7.1,7c6.2,1.7,8.9-8,2.7-9.6h0Z"/>
  <path d="M341.6,247.2c-2.1,17.7-2.8,35.6-2.1,53.5s10.2,6.4,10,0c-.7-17.9,0-35.7,2.1-53.5s-9.2-6.3-10,0h0Z"/>
  <path d="M343.2,241.7c-30.8-.4-61.7-1.4-92.5-3s-6.4,9.7,0,10c30.8,1.6,61.6,2.6,92.5,3,6.4,0,6.4-9.9,0-10h0Z"/>
  <path d="M88.9,127.1c-6.5-1.4-9.8,3.8-10.9,9.5s-2.2,13.7-2.6,20.6c-1,14.8.2,29.8,3.2,44.4,5.2,25.4,16.3,56.5,40,70.1,5.6,3.2,10.6-5.4,5-8.6-19.6-11.2-28.7-36.5-33.9-57.2-2.9-11.6-4.5-23.4-4.7-35.4s.1-11.8.7-17.6.7-6.1,1.1-9.2.5-2.9.8-4.4l.3-1.7c.9-1.6.3-1.8-1.7-.8,6.3,1.3,9-8.3,2.7-9.6h0Z"/>
  <path d="M242.3,220.6c-5,14.9-11.7,29.9-22.2,41.7s-6.6,6.8-10.4,9.6-10.4,5.4-13.8,9.4,0,9.1,4.9,8.4,5.7-2.8,7.9-4.2c5.2-3.2,10.1-6.8,14.7-10.7s7.4-6.8,10.8-10.6,3.7-4,4.6-6.4-2.7-7.6-6.2-6.2-3.7,2.7-5.3,4.5c-2.8,3-5.5,6-8.3,9s-5.9,6.4-8.8,9.6-2.1,2.2-3.1,3.4-2.4,1.9-.4.7l7.3,5.6c-.3.8-1.2,1.8-.3.9s1.2-1.5,1.8-2.2c1.8-2.1,3.6-4.3,5.4-6.4,4.1-4.6,8.2-9.3,12.8-13.4s1.3-1.1,1.9-1.6,1.1-.6,1.1-.7c-.3,1.1-4.2-3.7-5-3.3s-2,5.6-2.4,6.3c-1.2,2.3-2.6,4.5-4.4,6.3-4.4,4.7-10.5,7.3-16.8,8.2-5.6.8-4.2,10,1.3,9.8,13-.4,25-8.5,28.5-21.3s-8-8.9-9.6-2.7-10.3,13.7-18.9,14l1.3,9.8c9.9-1.4,19.2-7,24.9-15.3,2.9-4.1,6.3-10.3,6-15.6s-4.1-7-8.2-5.7c-6.7,2.1-12.6,10.1-17,15s-9.7,9.4-12.1,14.9,3.9,7.7,7.3,5.6,3.2-3,4.5-4.5c2.7-3,5.4-5.9,8.1-8.9s5.6-6.2,8.5-9.3,2.1-2.2,3.1-3.3,2.7-1.6-.7-.2l-6.2-6.2c.4-1.2.5-.8-.2-.2-1.1,1-2,2.4-3,3.5-3,3.3-6.2,6.4-9.6,9.3s-7.8,6.1-12,8.8-3.2,1.9-4.8,2.8-2.1.8-1.3.7l4.9,8.4c-1.1,1.3,1-.6,1.6-1.1,1.3-.9,2.7-1.7,4-2.6,2.6-1.7,5.2-3.4,7.7-5.3,4.5-3.4,8.6-7.3,12.2-11.6,10.9-13,18-28.6,23.4-44.5,2.1-6.1-7.6-8.7-9.6-2.7h0Z"/>
  <path d="M250.1,152.3c-2.6-8-6.9-15.1-12.4-21.4s-11.3,2.2-7.1,7.1,7.8,10.7,9.8,17,11.6,3.5,9.6-2.7h0Z"/>
  <path d="M209.7,249.7c.2-5.9-6.8-9.4-11.7-6.7s-6,8.1-4.8,12.6,2.6,4.8,5.1,5.4,5.7-.8,7.9-2.7c4.2-3.7,6.1-10.9.7-14.5s-9.5-1-11.8,3,.8,11.1,6.1,12.3c5.8,1.4,10.8-3.4,11.2-9s-4.4-11-10.1-9.1-8.2,12.8-2.3,16.2,6,.9,8.2-1.1,2.5-6.1.2-8.8-5.2-1.8-7.1,0-1.8,5,0,7.1l.2.3-1.3-2.2c-.5-1.2,1.3-5.3,3.6-4.4l2.2,1.3c.2.1.7,2.3.6.8.2-.6.3-.8.2-.5-1.9,1.3-3.3,1.3-4.3,0-.2-.3.3-1,0,0,0-.5,0-.4,0,.2,0-.2.1-.3.3-.4-.4.4-.5.5-.1.2.2,0,.3-.2.5-.2.2,0,.4,0,.7.1.9.5.4,2.2-.2,2.7-.2.2-.5.4-.8.4.5-.1.5-.2.2,0-.9-.1-1.6-.2-2.2-1.2s.3-1.4-.5-.9-.7.6-.9.8c.2-.2,0,0-.5.3,2.2-.5,3.6,0,4.2,1.4-.1-.6-.1-.6,0-.1,0-.6,0-.6,0-.2,0-.2.2-1.5.2-.9.3-.5.4-.6.2-.2-.4.4-.8.6-1.3.6-1.1,0-2.2-1.2-2.1-2.3-.1,2.7,2.4,5,5,5s4.9-2.3,5-5h0Z"/>
  <path d="M196.9,156c-6.1-5.9-13.1-11-21.5-13.1s-19-.4-27.3,4.2c-16.3,9.1-28.4,27.8-30.2,46.4s14.7,39.1,36.2,40.4,34.6-10.2,46.1-23.9c7.4-8.8,13-18.4,11-30.3s-7.6-17.2-14.3-23.8-11.7,2.6-7.1,7.1,8.5,8.8,10.5,14.6c2.9,8.3.2,15.9-4.9,22.6-8.2,10.6-18.6,20.4-32.2,23.1-15.7,3.1-34.2-5.9-35.4-23.2s7.9-31.1,19.6-40.4,14-8.4,22-7.7,14.7,5.6,20.4,11.1c4.6,4.5,11.7-2.6,7.1-7.1Z"/>
  <path d="M257.7,246.2c0,4,0,8,0,11.9s2.1,2.1,2.8.8,1.9-3.5,2.8-5.2.2-1.6-.5-2.1-1.7-.2-2.1.5c-.9,1.7-1.9,3.5-2.8,5.2l2.8.8c0-4,0-8,0-11.9s-3-1.9-3,0h0Z"/>
  <path d="M271.3,249.4c-.2,2.9-.4,5.7-.7,8.6s.7,1.5,1.5,1.5,1.4-.7,1.5-1.5c.2-2.9.4-5.7.7-8.6s-.7-1.5-1.5-1.5-1.4.7-1.5,1.5h0Z"/>
  <path d="M285.3,249.7c0,4-.2,8.1-.3,12.1s.7,1.5,1.5,1.5,1.4-.7,1.5-1.5.3-1.1.6-1.5c.5-.6.6-1.5,0-2.1s-1.6-.6-2.1,0c-.9,1.1-1.4,2.2-1.5,3.6h3c0-4,.2-8.1.3-12.1s-3-1.9-3,0h0Z"/>
  <path d="M299.9,247.7c-.5,3.5-1,7-1.5,10.4s.2,1.6,1,1.8,1.7-.2,1.8-1c.5-3.5,1-7,1.5-10.4s-.2-1.6-1-1.8-1.7.2-1.8,1h0Z"/>
  <path d="M316.1,248.1c-.4,2.8-.8,5.5-1.3,8.3s0,1.4.7,1.7,1.3.2,1.8-.2c.9-.9,1.9-1.7,2.8-2.6s.6-1.6,0-2.1-1.5-.6-2.1,0c-.9.9-1.9,1.7-2.8,2.6l2.5,1.5c.4-2.8.8-5.5,1.3-8.3s-.2-1.7-1-1.8-1.7.2-1.8,1h0Z"/>
  <path d="M330.5,248.7c-.5,4.1-1.1,8.3-1.6,12.4s.8,1.5,1.5,1.5,1.4-.7,1.5-1.5c.5-4.1,1.1-8.3,1.6-12.4s-.8-1.5-1.5-1.5-1.4.7-1.5,1.5h0Z"/>
</svg>